<svg width="1610" height="992" xmlns="http://www.w3.org/2000/svg" xmlns:xlink="http://www.w3.org/1999/xlink" xml:space="preserve" overflow="hidden"><defs><clipPath id="clip0"><rect x="1120" y="375" width="1610" height="992"/></clipPath></defs><g clip-path="url(#clip0)" transform="translate(-1120 -375)"><path d="M1130 1215C1130 1131.05 1488.17 1063 1930 1063 2371.83 1063 2730 1131.05 2730 1215 2730 1298.95 2371.83 1367 1930 1367 1488.17 1367 1130 1298.95 1130 1215Z" fill="#458B4D" fill-rule="evenodd"/><path d="M1688 838C1688 617.086 1793.44 438 1923.5 438 2053.56 438 2159 617.086 2159 838 2159 1058.91 2053.56 1238 1923.5 1238 1793.44 1238 1688 1058.91 1688 838Z" fill="#FCBDB2" fill-rule="evenodd"/><path d="M1804.39 739.87C1738.09 673.566 1737.63 566.525 1803.37 500.787 1844.04 460.116 1883.71 418.443 1922.37 375.766 1961.41 418.775 2001.43 460.79 2042.45 501.811 2108.76 568.114 2109.21 675.155 2043.48 740.893 1977.74 806.631 1870.7 806.173 1804.39 739.87Z" fill="#FCBDB2" fill-rule="evenodd"/><path d="M2036.75 762.781C2143.99 577.044 2322.31 479.238 2435.04 544.326 2547.78 609.413 2552.23 812.746 2445 998.483 2337.76 1184.22 2159.44 1282.03 2046.71 1216.94 1933.97 1151.85 1929.51 948.518 2036.75 762.781Z" fill="#FFC5B9" fill-rule="evenodd"/><path d="M2183.76 741.499C2160.17 653.477 2213.85 562.615 2303.65 538.553 2359.21 523.666 2414.41 507.448 2469.25 489.899 2481.13 545.084 2494.36 599.906 2508.95 654.363 2532.54 742.385 2478.86 833.247 2389.06 857.309 2299.26 881.371 2207.34 829.521 2183.76 741.499Z" fill="#FFC5B9" fill-rule="evenodd"/><path d="M1401.85 993.992C1294.61 808.255 1299.07 604.922 1411.81 539.835 1524.54 474.747 1702.86 572.553 1810.1 758.29 1917.33 944.027 1912.87 1147.36 1800.14 1212.45 1687.4 1277.53 1509.08 1179.73 1401.85 993.992Z" fill="#FFC5B9" fill-rule="evenodd"/><path d="M1456.92 856.038C1368.9 832.452 1317.05 740.535 1341.11 650.735 1356 595.178 1369.55 539.264 1381.78 482.993 1435.51 500.301 1489.6 516.251 1544.06 530.843 1632.08 554.428 1683.93 646.345 1659.87 736.146 1635.81 825.946 1544.94 879.623 1456.92 856.038Z" fill="#FFC5B9" fill-rule="evenodd"/><path d="M2214.98 778.774C2400.72 671.539 2604.05 675.997 2669.14 788.732 2734.23 901.467 2636.42 1079.79 2450.69 1187.02 2264.95 1294.26 2061.62 1289.8 1996.53 1177.07 1931.44 1064.33 2029.25 886.01 2214.98 778.774Z" fill="#FCBDB2" fill-rule="evenodd"/><path d="M2352.94 833.848C2376.52 745.826 2468.44 693.976 2558.24 718.038 2613.8 732.924 2669.71 746.48 2725.98 758.704 2708.67 812.433 2692.72 866.526 2678.13 920.984 2654.55 1009.01 2562.63 1060.86 2472.83 1036.79 2383.03 1012.73 2329.35 921.87 2352.94 833.848Z" fill="#FCBDB2" fill-rule="evenodd"/><path d="M1393.87 1183.14C1208.13 1075.91 1110.33 897.584 1175.41 784.85 1240.5 672.115 1443.83 667.657 1629.57 774.892 1815.31 882.127 1913.11 1060.45 1848.03 1173.18 1782.94 1285.92 1579.61 1290.38 1393.87 1183.14Z" fill="#FCBDB2" fill-rule="evenodd"/><path d="M1372.59 1036.13C1284.57 1059.72 1193.7 1006.04 1169.64 916.24 1154.75 860.682 1138.54 805.482 1120.99 750.638 1176.17 738.762 1230.99 725.529 1285.45 710.937 1373.47 687.351 1464.34 741.029 1488.4 830.829 1512.46 920.629 1460.61 1012.55 1372.59 1036.13Z" fill="#FCBDB2" fill-rule="evenodd"/></g></svg>